<?xml version="1.0" standalone="no"?>
<!DOCTYPE svg PUBLIC "-//W3C//DTD SVG 20010904//EN"
 "http://www.w3.org/TR/2001/REC-SVG-20010904/DTD/svg10.dtd">
<svg version="1.0" xmlns="http://www.w3.org/2000/svg"
 width="800.000000pt" height="800.000000pt" viewBox="0 0 800.000000 800.000000"
 preserveAspectRatio="xMidYMid meet">

<g transform="translate(0.000000,800.000000) scale(0.100000,-0.100000)"
fill="#0071BC" stroke="none">
<path d="M1618 7989 c-64 -15 -115 -57 -162 -133 -24 -39 -315 -541 -646
-1116 -332 -575 -623 -1079 -646 -1120 -24 -41 -40 -78 -36 -82 10 -10 405
-238 413 -238 4 0 291 494 639 1098 348 603 634 1098 635 1100 1 1 579 2 1283
2 l1282 0 0 250 0 250 -1362 -1 c-750 -1 -1380 -5 -1400 -10z"/>
<path d="M2136 7055 c-87 -31 -83 -25 -658 -1021 -301 -522 -548 -952 -548
-956 0 -7 420 -252 424 -246 1 2 229 396 505 876 l503 872 1009 0 1009 0 0
245 0 245 -1102 0 c-912 -1 -1110 -3 -1142 -15z"/>
<path d="M2655 6096 c-27 -13 -60 -34 -72 -47 -12 -13 -395 -671 -852 -1463
-630 -1091 -832 -1449 -837 -1482 -8 -53 1 -106 26 -154 65 -126 1646 -2850
1667 -2873 15 -15 45 -36 68 -47 41 -20 62 -20 1726 -20 l1685 0 52 26 c29 14
63 40 76 58 48 63 317 539 309 547 -4 4 -98 59 -208 122 -135 79 -203 113
-211 106 -6 -5 -58 -90 -115 -189 l-103 -180 -1484 2 -1484 3 -738 1280 -739
1280 17 30 c10 16 344 594 741 1283 l723 1252 1482 0 1481 0 735 -1273 c404
-699 735 -1281 735 -1292 0 -19 -760 -1349 -793 -1387 -14 -17 -91 -18 -1343
-18 -730 0 -1330 3 -1332 8 -3 4 344 610 770 1347 426 737 788 1367 805 1400
69 135 20 287 -111 344 l-50 21 -1133 -2 -1133 -3 0 -240 0 -240 893 -3 c492
-1 892 -6 890 -10 -2 -5 -363 -631 -803 -1393 l-799 -1384 -4 -67 c-2 -37 1
-83 8 -103 16 -48 72 -110 124 -138 l41 -22 1690 0 1690 0 40 22 c22 12 54 36
71 55 18 18 251 412 518 876 357 618 489 856 496 890 10 54 1 112 -25 162 -45
87 -1631 2829 -1652 2857 -14 18 -48 43 -76 58 l-51 25 -1680 0 -1681 0 -50
-24z"/>
</g>
</svg>
