<?xml version="1.0" standalone="no"?>
<!DOCTYPE svg PUBLIC "-//W3C//DTD SVG 20010904//EN"
 "http://www.w3.org/TR/2001/REC-SVG-20010904/DTD/svg10.dtd">
<svg version="1.0" xmlns="http://www.w3.org/2000/svg"
 width="200.000000pt" height="200.000000pt" viewBox="0 0 200.000000 200.000000"
 preserveAspectRatio="xMidYMid meet">
<metadata>
Created by potrace 1.11, written by Peter Selinger 2001-2013
</metadata>
<g transform="translate(0.000000,200.000000) scale(0.100000,-0.100000)"
fill="#000000" stroke="none">
<path d="M947 1888 c-221 -38 -258 -339 -55 -433 119 -55 276 13 312 135 26
85 2 184 -56 236 -64 58 -121 75 -201 62z m88 -112 c77 -32 98 -136 39 -197
-97 -101 -261 20 -192 142 34 61 90 81 153 55z"/>
<path d="M1548 1565 c-2 -2 -16 -6 -31 -9 -62 -11 -131 -73 -157 -141 -16 -40
-14 -124 4 -166 19 -46 79 -106 124 -125 105 -44 240 4 291 105 76 147 -16
311 -185 334 -23 4 -43 4 -46 2z m83 -120 c37 -20 69 -70 69 -110 0 -85 -99
-146 -175 -107 -62 31 -84 94 -56 157 29 66 100 92 162 60z"/>
<path d="M365 1531 c-125 -32 -197 -133 -181 -254 19 -143 178 -237 309 -182
114 48 171 165 137 285 -29 103 -160 178 -265 151z m105 -116 c68 -35 82 -142
25 -195 -76 -71 -205 -15 -205 90 0 90 98 147 180 105z"/>
<path d="M870 1211 c-79 -25 -149 -63 -197 -107 l-42 -39 28 -27 28 -27 35 29
c79 65 197 110 289 110 98 0 229 -48 291 -105 l26 -24 26 26 c15 15 25 31 23
37 -7 21 -97 81 -158 106 -81 32 -78 31 -194 35 -74 2 -114 -1 -155 -14z"/>
<path d="M952 1058 c-56 -8 -129 -42 -175 -81 l-28 -23 25 -27 c14 -15 27 -27
30 -27 3 0 24 13 48 29 24 15 60 34 81 41 54 17 153 8 202 -18 22 -11 51 -27
64 -34 21 -11 26 -9 47 15 l24 28 -27 23 c-74 62 -185 90 -291 74z"/>
<path d="M1490 894 c-162 -75 -171 -302 -16 -398 41 -26 59 -30 115 -31 58 0
74 4 117 30 133 83 152 264 37 365 -74 64 -162 76 -253 34z m179 -112 c34 -29
49 -80 37 -126 -19 -78 -132 -112 -193 -59 -91 81 -23 233 98 215 15 -2 41
-16 58 -30z"/>
<path d="M366 895 c-157 -54 -208 -245 -98 -367 86 -95 224 -105 321 -22 98
85 106 238 15 329 -59 59 -164 85 -238 60z m134 -112 c36 -21 60 -68 60 -117
0 -27 -8 -43 -35 -71 -20 -19 -46 -36 -58 -36 -12 -1 -29 -2 -37 -3 -23 -2
-71 27 -93 56 -38 51 -17 142 40 171 37 20 91 20 123 0z"/>
<path d="M935 856 c-16 -8 -39 -21 -50 -29 -20 -15 -20 -16 8 -45 l28 -29 37
18 c45 23 64 24 109 2 34 -16 35 -16 60 9 31 31 25 44 -31 69 -48 22 -119 24
-161 5z"/>
<path d="M975 555 c-80 -23 -118 -55 -157 -129 -16 -32 -20 -52 -16 -106 9
-120 80 -196 202 -216 82 -13 186 43 226 122 35 69 34 162 -2 220 -60 94 -160
137 -253 109z m122 -121 c87 -56 54 -204 -49 -220 -90 -15 -169 81 -133 161
22 47 30 55 71 70 42 16 76 12 111 -11z"/>
</g>
</svg>
