<?xml version="1.0" standalone="no"?>
<!DOCTYPE svg PUBLIC "-//W3C//DTD SVG 20010904//EN"
 "http://www.w3.org/TR/2001/REC-SVG-20010904/DTD/svg10.dtd">
<svg version="1.0" xmlns="http://www.w3.org/2000/svg"
 width="800.000000pt" height="800.000000pt" viewBox="0 0 800.000000 800.000000"
 preserveAspectRatio="xMidYMid meet">
<metadata>
Created by potrace 1.14, written by Peter Selinger 2001-2017
</metadata>
<g transform="translate(0.000000,800.000000) scale(0.100000,-0.100000)"
fill="#000000" stroke="none">
<path d="M1590 7984 c-74 -32 -105 -65 -172 -184 -40 -70 -128 -222 -207 -360
-40 -69 -160 -276 -266 -460 -106 -184 -222 -386 -259 -449 -36 -62 -66 -117
-66 -121 0 -5 -3 -10 -7 -12 -5 -1 -16 -19 -27 -38 -20 -37 -167 -293 -256
-445 -29 -49 -66 -115 -83 -145 -16 -30 -38 -67 -49 -82 -10 -14 -18 -29 -18
-33 0 -3 -16 -30 -34 -60 l-35 -54 147 -84 c81 -47 163 -94 182 -105 19 -10
51 -29 70 -40 l35 -21 269 467 c148 257 277 479 287 494 11 15 19 29 19 32 0
2 43 77 95 167 52 89 95 164 95 166 0 2 11 22 26 44 14 22 34 57 46 77 23 42
275 479 306 532 12 19 41 71 66 115 24 44 51 88 59 99 13 18 55 18 1289 18
1174 0 1277 2 1280 17 3 13 2 446 -1 474 -1 4 -621 7 -1378 7 -1199 -1 -1383
-3 -1413 -16z"/>
<path d="M2169 7068 c-70 -12 -138 -65 -179 -140 -8 -15 -28 -52 -44 -80 -15
-29 -34 -60 -42 -69 -8 -8 -14 -18 -14 -21 0 -4 -56 -102 -124 -220 -100 -173
-830 -1438 -842 -1459 -4 -7 424 -254 430 -248 4 4 202 345 246 423 10 19 30
53 44 75 15 22 26 42 26 45 0 2 30 55 66 117 37 63 109 188 162 279 109 189
178 309 259 448 95 163 165 286 180 313 7 15 19 31 26 36 7 6 420 9 1015 9
551 -1 1002 1 1003 4 4 22 3 483 -1 488 -7 9 -2158 9 -2211 0z"/>
<path d="M2671 6108 c-85 -32 -79 -23 -384 -553 -61 -104 -150 -260 -200 -345
-49 -85 -101 -175 -115 -200 -14 -25 -57 -99 -95 -165 -38 -66 -83 -145 -100
-175 -17 -30 -34 -56 -39 -58 -4 -2 -8 -8 -8 -12 0 -7 -117 -216 -151 -270
-37 -59 -319 -555 -319 -562 0 -4 -4 -8 -10 -8 -5 0 -10 -5 -10 -11 0 -6 -23
-49 -51 -97 -29 -48 -60 -102 -71 -120 -32 -57 -93 -163 -159 -277 l-64 -110
0 -80 0 -80 63 -110 c34 -61 67 -117 72 -125 5 -8 29 -49 52 -90 24 -41 47
-83 53 -92 24 -40 103 -177 134 -233 18 -33 42 -72 52 -87 11 -14 19 -29 19
-32 0 -4 20 -39 44 -79 23 -39 82 -139 129 -222 107 -187 111 -196 171 -297
27 -46 60 -103 74 -128 14 -25 89 -155 167 -290 78 -135 247 -427 375 -650
128 -223 247 -424 264 -447 32 -43 69 -70 121 -88 21 -8 540 -11 1705 -11
l1675 1 48 24 c63 31 92 67 201 256 50 88 116 202 145 253 46 79 52 95 40 106
-27 26 -402 237 -413 233 -6 -3 -41 -58 -78 -123 -37 -66 -85 -148 -106 -184
l-38 -65 -1480 -2 -1480 -2 -32 57 c-18 31 -37 64 -42 72 -17 25 -96 164 -103
180 -4 8 -16 29 -26 45 -10 17 -45 75 -76 130 -32 55 -65 114 -75 130 -9 17
-93 161 -185 320 -92 160 -224 389 -294 510 -71 121 -139 240 -153 265 -14 25
-48 82 -74 128 -63 107 -59 100 -129 222 -33 58 -64 112 -70 121 -5 9 -25 43
-43 75 -17 32 -37 66 -42 74 -6 8 -38 65 -73 125 l-63 110 41 70 c23 39 56 97
75 130 18 33 39 67 46 76 8 8 14 18 14 22 0 3 71 128 158 279 87 150 170 293
184 318 14 25 59 104 100 175 42 72 123 213 182 315 58 102 110 192 115 200
11 17 164 282 202 349 24 42 149 258 197 341 12 19 40 68 62 109 23 41 57 97
75 126 l34 52 1476 0 1476 0 37 -61 c20 -34 44 -74 53 -91 9 -16 73 -129 144
-250 70 -121 213 -368 318 -550 104 -181 242 -420 305 -530 64 -110 120 -210
126 -222 6 -13 14 -23 19 -23 4 0 7 -4 7 -10 0 -5 106 -192 235 -415 129 -223
235 -408 235 -411 0 -2 -50 -91 -111 -197 -97 -166 -150 -258 -241 -416 -114
-199 -303 -525 -347 -601 -31 -52 -65 -113 -77 -135 l-22 -40 -1332 -5 c-733
-3 -1334 -2 -1337 3 -2 4 81 155 185 335 104 180 199 343 209 362 60 104 384
667 393 680 5 8 24 42 43 75 58 101 73 128 104 181 17 27 41 70 55 95 14 24
149 258 301 520 326 564 304 524 313 584 13 102 -42 205 -136 252 l-55 28
-1125 1 c-619 0 -1131 -2 -1137 -4 -10 -3 -13 -62 -13 -248 l0 -244 23 -1 c12
0 412 -1 890 -1 480 -1 867 -5 867 -10 0 -5 -11 -26 -25 -48 -14 -22 -25 -42
-25 -45 0 -3 -11 -22 -24 -43 -19 -30 -191 -327 -274 -472 -10 -19 -86 -150
-167 -290 -81 -140 -183 -318 -228 -395 -44 -77 -95 -165 -113 -195 -18 -30
-83 -143 -144 -250 -168 -293 -191 -333 -211 -362 -11 -15 -19 -30 -19 -33 0
-4 -23 -45 -51 -93 -29 -48 -61 -103 -72 -122 -11 -19 -62 -109 -115 -200
-128 -221 -141 -252 -137 -320 3 -71 27 -124 74 -170 80 -76 -74 -70 1811 -67
l1687 2 49 30 c50 31 85 77 170 227 23 40 108 188 189 328 81 140 157 271 168
290 27 48 246 428 268 465 10 16 24 41 32 55 7 14 64 112 125 219 62 107 112
202 112 212 0 10 4 20 9 23 10 6 8 60 -3 91 -13 36 -57 122 -101 196 -85 146
-258 445 -287 499 -16 30 -42 75 -58 100 -15 25 -80 137 -145 250 -65 113
-125 216 -133 230 -9 14 -17 27 -17 30 0 3 -8 16 -17 30 -8 14 -84 144 -168
290 -84 146 -194 337 -245 425 -51 88 -184 318 -295 510 -111 193 -213 362
-228 378 -14 15 -46 37 -71 49 l-46 23 -1673 0 c-1576 0 -1676 -1 -1721 -17z"/>
</g>
</svg>
