<svg xmlns="http://www.w3.org/2000/svg" viewBox="0 0 1988 570" xml:space="preserve"><path fill="#0071BC" d="m157.2 247.2-19.9-11.5 50-86.6c2.1-3.6 5.9-5.8 10-5.8h100v23h-93.4l-46.7 80.9z"/><path fill="#0071BC" d="M119.9 225.7 100 214.2l62.3-107.9c2.1-3.6 5.9-5.8 10-5.8h125v23H178.9l-59 102.2zm337.3 97.1-75-129.9c-2.1-3.6-5.9-5.8-10-5.8h-150c-4.1 0-7.9 2.2-10 5.8l-75 129.9c-2.1 3.6-2.1 7.9 0 11.5l75 129.9c2.1 3.6 5.9 5.8 10 5.8h150c4.1 0 7.9-2.2 10-5.8l13.1-22.7s.5-.9-.4-1.4c-3.6-2.1-17.4-10.1-18.2-10.5-.9-.5-1.4.4-1.4.4l-9.8 17H228.9l-68.4-118.4 68.4-118.4h136.7L434 328.6l-37.2 64.5H273.1l73.2-126.8c2.1-3.6 2.1-7.9 0-11.5-2.1-3.6-5.9-5.8-10-5.8H234.7c-.6 0-1 .4-1 1v21c0 .6.4 1 1 1h81.7l-73.2 126.8c-2.1 3.6-2.1 7.9 0 11.5 2.1 3.6 5.9 5.8 10 5.8h150.1c4.1 0 7.9-2.2 10-5.8l43.9-76c2.1-3.5 2.1-7.9 0-11.5z"/><path d="M560.8 250.9h5.1l26.9 62.2 27.1-62.2h5.1l-29.7 67.9 39.8 91 69.7-160.3h5.1l-72.3 166.1h-5.1l-39.5-91-39.5 91h-5.1l-72.3-166.1h5.1l69.7 160.3 39.5-91-29.6-67.9zm151.1 129.8c0-6.9 2.1-12.9 6.4-18 4.3-5.1 10.2-9.2 17.7-12.2s16.1-4.4 26-4.4c6.9 0 13.9.6 21.2 1.8s13.8 2.8 19.5 5v-13.8c0-12.6-3.6-22.8-10.9-30.5-7.2-7.8-16.8-11.6-28.8-11.6-5.8 0-12.1 1.3-18.8 3.9-6.8 2.6-13.6 6.3-20.5 11.1l-2.8-3.7c7.8-5.3 15.2-9.3 22.2-11.9 7-2.7 13.6-4 19.9-4 13.6 0 24.4 4.2 32.4 12.6 8 8.4 12.1 19.8 12.1 34.2v67.2c0 1.6.4 2.7 1.1 3.5.7.8 1.6 1.2 2.7 1.2v4.7c-.9 0-1.6 0-2.1-.1s-.9-.2-1.2-.4c-1.6-.6-2.8-1.8-3.7-3.4-.9-1.6-1.4-3.5-1.4-5.5V395c-5.6 7.2-12.9 12.8-22 16.8-9 4.1-18.9 6.1-29.5 6.1-7.3 0-14-1.6-19.9-4.9-5.9-3.3-10.6-7.8-14.2-13.5-3.6-5.6-5.4-11.9-5.4-18.8zm87.3 11c1.2-1.7 2.1-3.4 2.7-5 .5-1.6.8-3.2.8-4.6V358c-6.2-2.5-12.8-4.3-19.5-5.5-6.8-1.2-13.8-1.8-21.2-1.8-13.6 0-24.5 2.7-32.9 8.2-8.3 5.5-12.5 12.7-12.5 21.8 0 6.1 1.5 11.6 4.6 16.5 3 4.9 7.2 8.8 12.5 11.7 5.3 2.9 11.2 4.3 17.6 4.3 10.4 0 20-1.9 28.7-5.9 8.6-3.8 15-9 19.2-15.6zm81.7 23.9L828 294.1h5.1L883 408.8l49.8-114.7h5.1L885 415.5h-4.1zm128 2.3c-8 0-15.5-1.7-22.6-5-7.1-3.4-13.3-8-18.7-13.8s-9.6-12.6-12.6-20.4c-3-7.7-4.6-15.9-4.6-24.7 0-11.4 2.6-21.8 7.7-31.1 5.1-9.4 12.1-16.8 20.7-22.3 8.7-5.5 18.3-8.3 28.9-8.3 10.8 0 20.6 2.8 29.4 8.4 8.8 5.6 15.9 13.1 21.2 22.6 5.3 9.4 8 20 8 31.7v2.6H955.1c.8 10.5 3.7 19.9 8.7 28.3 5 8.4 11.5 15.1 19.4 20s16.6 7.4 26 7.4 18.1-2.4 26.2-7.1c8.1-4.8 13.9-10.9 17.3-18.4l4.4 1.2c-2.2 5.5-5.7 10.4-10.6 14.9-4.9 4.4-10.6 7.9-17.2 10.4-6.6 2.4-13.4 3.6-20.4 3.6zm-53.8-65h106.2c-.6-10.9-3.4-20.6-8.2-28.9-4.8-8.3-11.2-14.9-19-19.8-7.8-4.8-16.5-7.3-26.2-7.3-9.5 0-18.2 2.4-26 7.3-7.8 4.8-14.1 11.5-18.8 19.9-4.7 8.4-7.4 18-8 28.8zm166.6 36.5c3 2 7.1 3.9 12.3 5.7 5.2 1.8 11.4 2.7 18.6 2.7 7.3 0 13.3-1.2 18-3.6 4.7-2.4 8.3-6 10.8-10.9s4.2-11.1 5.1-18.7c.9-7.6 1.4-16.5 1.4-26.9v-88.3h21.1v83.8c0 12.2-.6 23.4-1.9 33.6-1.3 10.2-3.7 19.1-7.5 26.6s-9.3 13.3-16.7 17.3c-7.4 4-17.3 6-29.6 6-7.8 0-14.7-.9-20.6-2.6-5.9-1.7-11.4-4.3-16.4-7.7l5.4-17zm211.1-105.1c-1.9-2.2-4.4-4.3-7.5-6.3-3.1-2-6.6-3.9-10.5-5.5-3.9-1.6-8.2-3-12.8-4-4.6-1-9.4-1.5-14.4-1.5-12.8 0-22.2 2.4-28.3 7.2-6.1 4.8-9.1 11.4-9.1 19.8 0 5.9 1.6 10.6 4.7 14 3.1 3.4 7.9 6.2 14.4 8.4s14.7 4.4 24.7 6.8c11.5 2.5 21.5 5.5 30 9.1 8.4 3.6 14.9 8.4 19.4 14.3 4.5 6 6.8 14 6.8 23.9 0 7.9-1.5 14.8-4.6 20.6-3 5.8-7.3 10.7-12.8 14.5-5.5 3.8-11.9 6.6-19.2 8.4-7.3 1.8-15.3 2.7-23.9 2.7-8.4 0-16.7-.9-24.7-2.7-8-1.8-15.6-4.4-22.8-7.8-7.2-3.4-13.9-7.7-20.1-12.9l10.1-17.8c2.5 2.7 5.7 5.3 9.7 7.8 4 2.6 8.5 5 13.6 7.1 5.1 2.2 10.6 3.9 16.5 5.3 5.9 1.3 12 2 18.3 2 11.9 0 21.1-2.1 27.6-6.4s9.8-10.5 9.8-18.7c0-6.2-1.8-11.2-5.5-14.9-3.7-3.7-9.1-6.8-16.3-9.3-7.2-2.5-15.9-5-26.2-7.5-11.2-2.8-20.7-5.9-28.3-9.2-7.6-3.3-13.4-7.7-17.2-13.2-3.8-5.4-5.7-12.5-5.7-21.2 0-10.6 2.6-19.5 7.7-26.8 5.1-7.3 12.2-12.8 21.3-16.6 9-3.7 19.3-5.6 30.7-5.6 7.5 0 14.5.8 20.9 2.3 6.5 1.6 12.5 3.7 18.1 6.6 5.6 2.8 10.8 6.2 15.4 10.1l-9.8 17z" fill="#1A1A1A"/><path fill="#0071BC" d="M1734.5 469.7h-327c-6.6 0-12-5.4-12-12V112.3c0-6.6 5.4-12 12-12h327c6.6 0 12 5.4 12 12v345.4c0 6.6-5.3 12-12 12z"/><path d="M1571.6 416.8c-13.3 0-24.4-2.3-33.5-6.9-9-4.6-16.3-10.8-21.8-18.7-5.5-7.9-9.4-16.8-11.9-26.8s-3.7-20.3-3.7-30.9v-84h21.1v84c0 8.1.8 16 2.5 23.8 1.6 7.7 4.3 14.6 8.1 20.7s8.8 10.9 15.2 14.5c6.4 3.6 14.4 5.4 23.9 5.4 9.7 0 17.7-1.8 24.1-5.5 6.4-3.7 11.5-8.6 15.2-14.7 3.7-6.2 6.4-13.1 8.1-20.7 1.6-7.6 2.5-15.4 2.5-23.4v-84h21.1v84c0 11.2-1.3 21.9-3.9 31.9-2.6 10.1-6.7 18.9-12.3 26.6-5.6 7.6-12.9 13.7-21.9 18.1-9.2 4.3-20 6.6-32.8 6.6zm96.4-1.2V249.4h21.1v166.1H1668z" fill="#FFF"/><circle fill="#FFF" cx="1723" cy="120" r="8"/><circle fill="#FFF" cx="1699.8" cy="120" r="8"/><circle fill="#FFF" cx="1676.6" cy="120" r="8"/><path fill="none" stroke="#FFF" d="M1395.5 140h351"/></svg>