<svg xmlns="http://www.w3.org/2000/svg" width="1470" height="570" viewBox="0 0 1470 570"><path fill="#0071BC" d="M157.20264 247.24316l-19.91895-11.5 50-86.60254c2.05469-3.55762 5.85107-5.75 9.95947-5.75h100v23h-93.36035l-46.68017 80.85254z"/><path fill="#0071BC" d="M119.91895 225.71777L100 214.21777l62.2832-107.87793c2.05469-3.55859 5.85107-5.75 9.95947-5.75h125.00049v23H178.88232l-58.96337 102.12793zM457.20215 322.8457l-75-129.9043c-2.05469-3.55762-5.85059-5.75-9.95898-5.75h-150c-4.1084 0-7.90479 2.19238-9.95947 5.75l-75 129.9043c-2.0542 3.55859-2.0542 7.94141 0 11.5l75 129.9043c2.0542 3.55762 5.85107 5.75 9.95947 5.75h150c4.1084 0 7.9043-2.19238 9.95898-5.75l13.11035-22.70703s.49902-.86328-.36816-1.36426c-3.62695-2.09277-17.42969-10.06152-18.18359-10.49707-.86914-.50195-1.36816.36328-1.36816.36328L365.60352 447h-136.7207l-68.36035-118.4043 68.36035-118.4043h136.7207l68.36035 118.4043-37.23828 64.5H273.14746l73.17969-126.75c2.05371-3.55859 2.05371-7.94141 0-11.5-2.05469-3.55859-5.85156-5.75-9.95996-5.75H234.74268c-.55176 0-.99902.44727-.99951 1v21c0 .55273.44775 1 1 1h81.70508l-73.17822 126.75c-2.0542 3.55859-2.0542 7.94238 0 11.5 2.05469 3.55762 5.85107 5.75 9.95947 5.75h150.13477c4.10938 0 7.90527-2.19238 9.95996-5.75l43.87793-76c2.05468-3.55859 2.05468-7.9414-.00001-11.5z"/><g fill="#1A1A1A"><path d="M560.77539 250.85352h5.14844l26.90918 62.24414 27.14453-62.24414h5.14746l-29.71777 67.86035 39.78027 91.02637 69.73145-160.29102h5.14844l-72.30566 166.14063h-5.14844l-39.5459-91.02637-39.5459 91.02637h-5.14844l-72.30566-166.14063h5.14844l69.73145 160.29102 39.5459-91.02637-29.71779-67.86035zM751.25293 417.92969c-5.46289 0-10.61035-.97559-15.44434-2.9248-4.83691-1.94922-9.00879-4.59961-12.51855-7.95605-3.51074-3.35254-6.28223-7.29102-8.30762-11.81738-2.0293-4.52246-3.04199-9.35938-3.04199-14.50781 0-5.14746 1.20703-9.82813 3.62695-14.04004 2.41699-4.21191 5.85059-7.83887 10.29688-10.88086 4.44531-3.04199 9.74707-5.41895 15.91211-7.13672 6.16016-1.71484 12.90625-2.57422 20.24023-2.57422 7.02051 0 14.11719.58496 21.29395 1.75488 7.17383 1.16992 13.64941 2.84766 19.42285 5.03125V339.0713c0-6.2373-.93652-11.9707-2.80859-17.19824-1.87207-5.22559-4.5625-9.6709-8.07324-13.33887-3.50977-3.66309-7.72168-6.51172-12.63574-8.54102-4.91406-2.02539-10.33594-3.04199-16.2627-3.04199-5.93066 0-12.24902 1.28711-18.9541 3.86133-6.70898 2.57422-13.49512 6.28125-20.3584 11.11523l-2.80762-3.74414c15.59766-10.60645 29.6377-15.91211 42.12012-15.91211 6.70508 0 12.83008 1.09375 18.36914 3.27637 5.53516 2.18652 10.21484 5.30469 14.04004 9.35938 3.82031 4.05859 6.78516 8.97266 8.8916 14.74219 2.10645 5.77344 3.15918 12.24902 3.15918 19.42188v67.1582c0 3.12305 1.24707 4.68066 3.74414 4.68066v4.67969c-1.71875 0-2.80859-.15332-3.27637-.46777-1.56152-.62207-2.80762-1.75488-3.74414-3.39355-.93555-1.6377-1.40332-3.46973-1.40332-5.49902v-11.23145c-5.61621 7.33398-12.95117 12.98633-21.99609 16.96484-9.04981 3.97752-18.87793 5.96678-29.48438 5.96678zm0-4.67969c10.44922 0 20.00684-1.94922 28.66504-5.85059 8.6582-3.89746 15.09277-9.12598 19.30469-15.67773 2.33984-3.27539 3.51074-6.47168 3.51074-9.59375v-24.10254c-12.48242-4.83301-26.05469-7.25391-40.7168-7.25391-6.86621 0-13.06738.70215-18.60254 2.10645-5.53906 1.40332-10.2959 3.43359-14.27441 6.08398-3.97754 2.6543-7.06055 5.81348-9.24316 9.47656-2.18652 3.66797-3.27539 7.7627-3.27539 12.28516 0 4.52637.89551 8.77539 2.69043 12.75293 1.79199 3.97852 4.24902 7.45215 7.37109 10.41309 3.11914 2.96582 6.78613 5.26563 10.99805 6.90332s8.73535 2.45703 13.57226 2.45703zM880.88867 415.58984L828.0039 294.14355h5.14844l49.8418 114.66016 49.8418-114.66016h5.14844l-52.88379 121.44629h-4.21192zM1008.88477 417.92969c-7.95605 0-15.48438-1.67773-22.58105-5.03125-7.09961-3.35254-13.30078-7.95605-18.60254-13.80566-5.30566-5.84961-9.51758-12.63574-12.63574-20.3584-3.12305-7.72168-4.68066-15.94824-4.68066-24.68652 0-8.57813 1.48145-16.61426 4.44629-24.10254 2.96191-7.4873 7.05664-14.04004 12.28516-19.65527 5.22461-5.61621 11.30859-10.02246 18.25195-13.22168 6.93945-3.19531 14.39063-4.79688 22.34668-4.79688 8.10938 0 15.71484 1.6377 22.81543 4.91406 7.09668 3.27637 13.25781 7.72168 18.48535 13.33789 5.22559 5.61621 9.39746 12.24902 12.51953 19.89063 3.11914 7.64453 4.67969 15.83496 4.67969 24.56934v2.57422H955.06543c.62109 7.80273 2.45703 15.09277 5.49902 21.87891s6.97949 12.67676 11.81641 17.66699c4.83398 4.99512 10.41309 8.93262 16.73145 11.81738 6.31738 2.88867 12.98633 4.3291 20.00684 4.3291 4.67969 0 9.24316-.62207 13.68848-1.87207 4.44629-1.24707 8.61816-3.00195 12.51953-5.26465 3.89746-2.25977 7.33105-4.95117 10.2959-8.07324 2.96191-3.11914 5.30176-6.55176 7.02051-10.2959l4.44531 1.16992c-1.71777 4.21191-4.1748 8.07324-7.37109 11.58301-3.19922 3.50977-6.94336 6.55176-11.23145 9.12598-4.29297 2.57422-8.97266 4.60254-14.04004 6.08398-5.0713 1.48046-10.25978 2.22265-15.56153 2.22265zm52.41601-65.05176c-.46777-8.11035-2.18652-15.59766-5.14746-22.46387-2.96582-6.86328-6.82617-12.75391-11.58301-17.66699-4.76074-4.91406-10.25977-8.77539-16.49707-11.58301-6.24121-2.80859-12.9502-4.21289-20.12402-4.21289-7.17773 0-13.88672 1.4043-20.12402 4.21289-6.24121 2.80762-11.74023 6.70898-16.49707 11.69922-4.76074 4.99512-8.54102 10.92188-11.34863 17.78418-2.80859 6.86621-4.44629 14.27441-4.91406 22.23047h106.23534zM1121.74121 390.78613c3.11816 2.18652 7.33008 4.13477 12.63574 5.84961 5.30176 1.71875 11.30859 2.57422 18.01758 2.57422 7.95605 0 14.27441-1.4043 18.9541-4.21191 4.67969-2.80859 8.22656-6.98047 10.64746-12.51953 2.41602-5.53516 4.01465-12.36133 4.79688-20.47461.77832-8.11035 1.16992-17.46973 1.16992-28.08008v-84.47461h21.05957v84.47461c0 12.63574-.58496 24.14258-1.75488 34.51465-1.16992 10.37695-3.74414 19.22852-7.72168 26.55957-3.97852 7.33398-9.6748 13.02734-17.08203 17.08203-7.41113 4.05469-17.43262 6.08398-30.06934 6.08398-14.04004 0-26.05371-3.42969-36.03613-10.2959l5.38281-17.08203zM1332.80566 284.31543c-1.87207-2.18262-4.36914-4.28906-7.4873-6.31738-3.12305-2.02637-6.63281-3.86133-10.53027-5.49902-3.90137-1.63867-8.15332-2.96191-12.75293-3.97852-4.60352-1.0127-9.40039-1.52051-14.3916-1.52051-12.9502 0-22.42676 2.41992-28.43066 7.25391-6.00684 4.83691-9.00879 11.46582-9.00879 19.88965 0 4.52637.85547 8.27051 2.57422 11.23242 1.71387 2.96484 4.40527 5.49902 8.07227 7.60449 3.66406 2.10645 8.22656 3.94141 13.68945 5.49902 5.45898 1.56152 11.93359 3.19922 19.42188 4.91406 8.57715 1.87207 16.33984 4.01855 23.2832 6.43457 6.93945 2.4209 12.87012 5.42285 17.78418 9.00977 4.91406 3.58984 8.65723 7.95605 11.23145 13.10352 2.57422 5.14844 3.86133 11.4668 3.86133 18.9541 0 7.95605-1.56152 14.85938-4.68066 20.70898-3.12207 5.85059-7.37012 10.6875-12.75293 14.50879-5.38184 3.82422-11.74023 6.63184-19.07031 8.42383-7.33496 1.79102-15.29102 2.69043-23.86816 2.69043-12.79297 0-24.9209-1.98828-36.38672-5.9668-11.4668-3.97754-21.87891-9.78809-31.23926-17.43262l10.06152-17.78418c2.49414 2.6543 5.7334 5.30469 9.71094 7.95605 3.97852 2.6543 8.50098 5.03125 13.57227 7.13672 5.06738 2.10645 10.53027 3.82422 16.37988 5.14844 5.85059 1.32715 11.9707 1.98828 18.36914 1.98828 11.85352 0 21.06055-2.10547 27.6123-6.31738s9.82813-10.53027 9.82813-18.9541c0-4.67969-1.05371-8.61816-3.15918-11.81738-2.10645-3.19531-5.18848-5.9668-9.24316-8.30664-4.05859-2.33984-9.08984-4.40625-15.09277-6.20117-6.00781-1.79199-12.83398-3.62695-20.47559-5.49902-8.42383-2.02539-15.83496-4.21191-22.22949-6.55176-6.39844-2.34082-11.74023-5.14844-16.0293-8.4248-4.29199-3.27539-7.52832-7.25391-9.71094-11.93359-2.18652-4.67969-3.27637-10.2959-3.27637-16.84766 0-7.95605 1.48145-14.97656 4.44629-21.06055 2.96191-6.08398 7.09668-11.23145 12.40234-15.44336 5.30176-4.21289 11.61914-7.37109 18.9541-9.47754 7.33008-2.10547 15.28613-3.15918 23.86816-3.15918 11.23145 0 21.37012 1.71875 30.41992 5.14844 9.04492 3.43262 17.08203 8.03613 24.10156 13.80566l-9.82814 17.08203z"/></g></svg>