<?xml version="1.0" standalone="no"?>
<!DOCTYPE svg PUBLIC "-//W3C//DTD SVG 20010904//EN"
 "http://www.w3.org/TR/2001/REC-SVG-20010904/DTD/svg10.dtd">
<svg version="1.0" xmlns="http://www.w3.org/2000/svg"
 width="512.000000pt" height="512.000000pt" viewBox="0 0 512.000000 512.000000"
 preserveAspectRatio="xMidYMid meet">
<metadata>
Created by potrace 1.11, written by Peter Selinger 2001-2013
</metadata>
<g transform="translate(0.000000,512.000000) scale(0.100000,-0.100000)"
fill="#000000" stroke="none">
<path d="M3397 5114 c-1 -1 -38 -4 -82 -8 -352 -27 -758 -128 -1099 -272
-1018 -431 -1793 -1319 -2080 -2384 -39 -146 -80 -350 -92 -455 -3 -27 -7 -59
-9 -70 -8 -42 -19 -224 -19 -334 l-1 -114 233 1 c129 0 235 2 237 4 1 2 5 66
9 143 3 77 8 151 10 165 3 14 7 49 10 78 29 259 114 574 223 832 240 563 630
1042 1128 1382 207 142 394 242 625 335 122 49 393 134 470 148 17 3 61 12 98
19 37 8 94 18 127 22 33 4 62 9 65 9 32 8 215 23 298 24 l62 1 0 240 0 241
-106 -3 c-58 -2 -106 -4 -107 -4z"/>
<path d="M3537 4125 c-1 -2 -51 -5 -112 -9 -60 -3 -119 -8 -130 -10 -11 -2
-42 -7 -70 -10 -100 -14 -122 -18 -225 -42 -482 -115 -890 -340 -1236 -680
-183 -180 -296 -321 -419 -524 -131 -215 -269 -549 -309 -750 -3 -14 -12 -57
-20 -95 -8 -39 -18 -95 -21 -125 -4 -30 -8 -60 -10 -67 -4 -12 -15 -155 -19
-255 -2 -31 1 -62 5 -69 5 -8 71 -12 233 -12 125 0 229 3 233 6 3 4 7 30 8 59
3 61 14 178 19 205 2 10 7 38 10 63 29 213 134 504 261 725 279 485 725 844
1252 1009 79 25 182 50 243 61 17 3 45 7 63 10 17 3 39 8 47 10 17 5 154 16
220 18 l45 2 3 238 c2 186 0 237 -10 238 -7 0 -23 2 -36 3 -12 2 -23 2 -25 1z"/>
<path d="M3499 2915 c-2 -2 -29 -6 -59 -10 -153 -18 -367 -91 -514 -175 -153
-88 -322 -232 -419 -360 -23 -30 -44 -57 -47 -60 -12 -10 -88 -137 -114 -188
-27 -53 -84 -193 -91 -222 -1 -8 -10 -42 -19 -75 -14 -55 -18 -76 -33 -160 -9
-56 -12 -320 -3 -366 5 -26 11 -64 14 -86 12 -106 64 -258 133 -397 239 -480
724 -787 1261 -800 94 -2 148 2 277 19 108 14 327 88 439 148 468 252 766 742
769 1267 2 233 -39 428 -132 626 -36 75 -101 191 -123 219 -5 6 -25 33 -46 60
-89 119 -264 275 -410 363 -124 76 -308 144 -472 177 -74 15 -401 31 -411 20z
m859 -665 c-2 -3 -70 -113 -153 -244 -82 -130 -157 -249 -166 -264 -9 -15 -86
-138 -172 -274 -86 -137 -155 -249 -154 -249 1 -1 145 -2 319 -3 174 -1 319
-4 321 -6 2 -3 -60 -108 -138 -235 l-142 -230 -623 0 c-342 0 -624 3 -626 6
-2 4 4 17 14 30 14 18 166 252 277 426 6 9 88 136 183 282 95 146 181 282 191
301 l19 35 -312 -1 c-171 0 -314 1 -318 3 -4 2 32 65 79 141 47 75 102 163
122 196 20 32 43 66 51 75 14 15 74 16 623 16 334 0 606 -2 605 -5z"/>
</g>
</svg>
